<?xml version="1.0" encoding="UTF-8" standalone="no"?>
<!DOCTYPE svg PUBLIC "-//W3C//DTD SVG 1.1//EN"
 "http://www.w3.org/Graphics/SVG/1.1/DTD/svg11.dtd">
<!-- Generated by graphviz version 2.38.0 (20140413.2041)
 -->
<!-- Title: %3 Pages: 1 -->
<svg width="1163pt" height="392pt"
 viewBox="0.00 0.00 1163.23 392.00" xmlns="http://www.w3.org/2000/svg" xmlns:xlink="http://www.w3.org/1999/xlink">
<g id="graph0" class="graph" transform="scale(1 1) rotate(0) translate(4 388)">
<title>%3</title>
<polygon fill="white" stroke="none" points="-4,4 -4,-388 1159.23,-388 1159.23,4 -4,4"/>
<!-- 0 -->
<g id="node1" class="node"><title>0</title>
<ellipse fill="none" stroke="black" cx="698.235" cy="-366" rx="177.369" ry="18"/>
<text text-anchor="start" x="569.735" y="-362.3" font-family="Times,serif" font-size="14.00">parser.Assignment instance at 0x7eff28455d88</text>
</g>
<!-- 1 -->
<g id="node2" class="node"><title>1</title>
<ellipse fill="none" stroke="black" cx="534.235" cy="-279" rx="174.369" ry="18"/>
<text text-anchor="start" x="408.235" y="-275.3" font-family="Times,serif" font-size="14.00">parser.Expression instance at 0x7eff28455dd0</text>
</g>
<!-- 1&#45;&#45;0 -->
<g id="edge1" class="edge"><title>1&#45;&#45;0</title>
<path fill="none" stroke="black" d="M566.636,-296.793C595.387,-311.695 637.17,-333.351 665.901,-348.242"/>
<text text-anchor="middle" x="641.235" y="-318.8" font-family="Times,serif" font-size="14.00">value</text>
</g>
<!-- 2 -->
<g id="node3" class="node"><title>2</title>
<ellipse fill="none" stroke="black" cx="172.235" cy="-192" rx="172.47" ry="18"/>
<text text-anchor="start" x="47.7347" y="-188.3" font-family="Times,serif" font-size="14.00">parser.Expression instance at 0x7eff28455cf8</text>
</g>
<!-- 2&#45;&#45;1 -->
<g id="edge2" class="edge"><title>2&#45;&#45;1</title>
<path fill="none" stroke="black" d="M239.053,-208.689C304.12,-223.968 402.462,-247.059 467.5,-262.33"/>
<text text-anchor="middle" x="384.735" y="-231.8" font-family="Times,serif" font-size="14.00">left</text>
</g>
<!-- 3 -->
<g id="node4" class="node"><title>3</title>
<ellipse fill="none" stroke="black" cx="28.2347" cy="-105" rx="27" ry="18"/>
<text text-anchor="middle" x="28.2347" y="-101.3" font-family="Times,serif" font-size="14.00">5</text>
</g>
<!-- 3&#45;&#45;2 -->
<g id="edge3" class="edge"><title>3&#45;&#45;2</title>
<path fill="none" stroke="black" d="M43.4449,-119.962C55.7109,-130.739 73.7421,-145.53 91.2347,-156 102.802,-162.924 115.988,-169.223 128.313,-174.509"/>
<text text-anchor="middle" x="100.735" y="-144.8" font-family="Times,serif" font-size="14.00">left</text>
</g>
<!-- 4 -->
<g id="node5" class="node"><title>4</title>
<ellipse fill="none" stroke="black" cx="100.235" cy="-105" rx="27" ry="18"/>
</g>
<!-- 4&#45;&#45;2 -->
<g id="edge4" class="edge"><title>4&#45;&#45;2</title>
<path fill="none" stroke="black" d="M105.129,-123.018C108.692,-133.333 114.292,-146.324 122.235,-156 127.882,-162.88 135.206,-169.013 142.499,-174.149"/>
<text text-anchor="middle" x="145.235" y="-144.8" font-family="Times,serif" font-size="14.00">operator</text>
</g>
<!-- 5 -->
<g id="node6" class="node"><title>5</title>
<ellipse fill="none" stroke="black" cx="172.235" cy="-105" rx="27" ry="18"/>
</g>
<!-- 5&#45;&#45;2 -->
<g id="edge5" class="edge"><title>5&#45;&#45;2</title>
<path fill="none" stroke="black" d="M172.235,-123.201C172.235,-137.948 172.235,-159.085 172.235,-173.825"/>
<text text-anchor="middle" x="185.235" y="-144.8" font-family="Times,serif" font-size="14.00">right</text>
</g>
<!-- 6 -->
<g id="node7" class="node"><title>6</title>
<ellipse fill="none" stroke="black" cx="244.235" cy="-105" rx="27" ry="18"/>
</g>
<!-- 6&#45;&#45;2 -->
<g id="edge6" class="edge"><title>6&#45;&#45;2</title>
<path fill="none" stroke="black" d="M231.407,-121.351C223.11,-131.261 212.063,-144.417 202.235,-156 197.264,-161.858 191.802,-168.245 186.917,-173.939"/>
<text text-anchor="middle" x="229.235" y="-144.8" font-family="Times,serif" font-size="14.00">value</text>
</g>
<!-- 7 -->
<g id="node8" class="node"><title>7</title>
<ellipse fill="none" stroke="black" cx="461.235" cy="-192" rx="32.4942" ry="18"/>
<text text-anchor="middle" x="461.235" y="-188.3" font-family="Times,serif" font-size="14.00">!ADD</text>
</g>
<!-- 7&#45;&#45;1 -->
<g id="edge7" class="edge"><title>7&#45;&#45;1</title>
<path fill="none" stroke="black" d="M474.624,-208.59C487.384,-223.448 506.545,-245.759 519.679,-261.051"/>
<text text-anchor="middle" x="525.235" y="-231.8" font-family="Times,serif" font-size="14.00">operator</text>
</g>
<!-- 8 -->
<g id="node9" class="node"><title>8</title>
<ellipse fill="none" stroke="black" cx="685.235" cy="-192" rx="173.569" ry="18"/>
<text text-anchor="start" x="559.735" y="-188.3" font-family="Times,serif" font-size="14.00">parser.Expression instance at 0x7eff28455e18</text>
</g>
<!-- 8&#45;&#45;1 -->
<g id="edge8" class="edge"><title>8&#45;&#45;1</title>
<path fill="none" stroke="black" d="M655.402,-209.793C628.93,-224.695 590.459,-246.351 564.005,-261.242"/>
<text text-anchor="middle" x="632.235" y="-231.8" font-family="Times,serif" font-size="14.00">right</text>
</g>
<!-- 9 -->
<g id="node10" class="node"><title>9</title>
<ellipse fill="none" stroke="black" cx="462.235" cy="-105" rx="172.769" ry="18"/>
<text text-anchor="start" x="337.235" y="-101.3" font-family="Times,serif" font-size="14.00">parser.Expression instance at 0x7eff28455ea8</text>
</g>
<!-- 9&#45;&#45;8 -->
<g id="edge9" class="edge"><title>9&#45;&#45;8</title>
<path fill="none" stroke="black" d="M505.496,-122.49C544.887,-137.504 602.741,-159.556 642.094,-174.556"/>
<text text-anchor="middle" x="596.735" y="-144.8" font-family="Times,serif" font-size="14.00">left</text>
</g>
<!-- 10 -->
<g id="node11" class="node"><title>10</title>
<ellipse fill="none" stroke="black" cx="354.235" cy="-18" rx="27" ry="18"/>
<text text-anchor="middle" x="354.235" y="-14.3" font-family="Times,serif" font-size="14.00">?y</text>
</g>
<!-- 10&#45;&#45;9 -->
<g id="edge10" class="edge"><title>10&#45;&#45;9</title>
<path fill="none" stroke="black" d="M367.055,-34.0235C376.45,-44.5255 389.85,-58.4942 403.235,-69 411.666,-75.618 421.462,-81.9086 430.62,-87.284"/>
<text text-anchor="middle" x="412.735" y="-57.8" font-family="Times,serif" font-size="14.00">left</text>
</g>
<!-- 11 -->
<g id="node12" class="node"><title>11</title>
<ellipse fill="none" stroke="black" cx="426.235" cy="-18" rx="27" ry="18"/>
</g>
<!-- 11&#45;&#45;9 -->
<g id="edge11" class="edge"><title>11&#45;&#45;9</title>
<path fill="none" stroke="black" d="M424.901,-36.3337C424.789,-46.2783 425.789,-58.7783 430.235,-69 433.059,-75.4931 437.597,-81.5735 442.378,-86.7858"/>
<text text-anchor="middle" x="453.235" y="-57.8" font-family="Times,serif" font-size="14.00">operator</text>
</g>
<!-- 12 -->
<g id="node13" class="node"><title>12</title>
<ellipse fill="none" stroke="black" cx="498.235" cy="-18" rx="27" ry="18"/>
</g>
<!-- 12&#45;&#45;9 -->
<g id="edge12" class="edge"><title>12&#45;&#45;9</title>
<path fill="none" stroke="black" d="M491.122,-35.7933C484.852,-50.5982 475.758,-72.0696 469.456,-86.9507"/>
<text text-anchor="middle" x="496.235" y="-57.8" font-family="Times,serif" font-size="14.00">right</text>
</g>
<!-- 13 -->
<g id="node14" class="node"><title>13</title>
<ellipse fill="none" stroke="black" cx="570.235" cy="-18" rx="27" ry="18"/>
</g>
<!-- 13&#45;&#45;9 -->
<g id="edge13" class="edge"><title>13&#45;&#45;9</title>
<path fill="none" stroke="black" d="M555.172,-33.0901C543.916,-43.399 527.993,-57.5282 513.235,-69 505.265,-75.1951 496.272,-81.5596 488.081,-87.1338"/>
<text text-anchor="middle" x="546.235" y="-57.8" font-family="Times,serif" font-size="14.00">value</text>
</g>
<!-- 14 -->
<g id="node15" class="node"><title>14</title>
<ellipse fill="none" stroke="black" cx="685.235" cy="-105" rx="32.4942" ry="18"/>
<text text-anchor="middle" x="685.235" y="-101.3" font-family="Times,serif" font-size="14.00">!ADD</text>
</g>
<!-- 14&#45;&#45;8 -->
<g id="edge14" class="edge"><title>14&#45;&#45;8</title>
<path fill="none" stroke="black" d="M685.235,-123.201C685.235,-137.948 685.235,-159.085 685.235,-173.825"/>
<text text-anchor="middle" x="708.235" y="-144.8" font-family="Times,serif" font-size="14.00">operator</text>
</g>
<!-- 15 -->
<g id="node16" class="node"><title>15</title>
<ellipse fill="none" stroke="black" cx="909.235" cy="-105" rx="173.569" ry="18"/>
<text text-anchor="start" x="783.735" y="-101.3" font-family="Times,serif" font-size="14.00">parser.Expression instance at 0x7eff28455e60</text>
</g>
<!-- 15&#45;&#45;8 -->
<g id="edge15" class="edge"><title>15&#45;&#45;8</title>
<path fill="none" stroke="black" d="M865.78,-122.49C826.212,-137.504 768.099,-159.556 728.569,-174.556"/>
<text text-anchor="middle" x="824.235" y="-144.8" font-family="Times,serif" font-size="14.00">right</text>
</g>
<!-- 16 -->
<g id="node17" class="node"><title>16</title>
<ellipse fill="none" stroke="black" cx="801.235" cy="-18" rx="27" ry="18"/>
<text text-anchor="middle" x="801.235" y="-14.3" font-family="Times,serif" font-size="14.00">10</text>
</g>
<!-- 16&#45;&#45;15 -->
<g id="edge16" class="edge"><title>16&#45;&#45;15</title>
<path fill="none" stroke="black" d="M814.055,-34.0235C823.45,-44.5255 836.85,-58.4942 850.235,-69 858.666,-75.618 868.462,-81.9086 877.62,-87.284"/>
<text text-anchor="middle" x="859.735" y="-57.8" font-family="Times,serif" font-size="14.00">left</text>
</g>
<!-- 17 -->
<g id="node18" class="node"><title>17</title>
<ellipse fill="none" stroke="black" cx="873.235" cy="-18" rx="27" ry="18"/>
</g>
<!-- 17&#45;&#45;15 -->
<g id="edge17" class="edge"><title>17&#45;&#45;15</title>
<path fill="none" stroke="black" d="M871.901,-36.3337C871.789,-46.2783 872.789,-58.7783 877.235,-69 880.059,-75.4931 884.597,-81.5735 889.378,-86.7858"/>
<text text-anchor="middle" x="900.235" y="-57.8" font-family="Times,serif" font-size="14.00">operator</text>
</g>
<!-- 18 -->
<g id="node19" class="node"><title>18</title>
<ellipse fill="none" stroke="black" cx="945.235" cy="-18" rx="27" ry="18"/>
</g>
<!-- 18&#45;&#45;15 -->
<g id="edge18" class="edge"><title>18&#45;&#45;15</title>
<path fill="none" stroke="black" d="M938.122,-35.7933C931.852,-50.5982 922.758,-72.0696 916.456,-86.9507"/>
<text text-anchor="middle" x="943.235" y="-57.8" font-family="Times,serif" font-size="14.00">right</text>
</g>
<!-- 19 -->
<g id="node20" class="node"><title>19</title>
<ellipse fill="none" stroke="black" cx="1017.23" cy="-18" rx="27" ry="18"/>
</g>
<!-- 19&#45;&#45;15 -->
<g id="edge19" class="edge"><title>19&#45;&#45;15</title>
<path fill="none" stroke="black" d="M1002.17,-33.0901C990.916,-43.399 974.993,-57.5282 960.235,-69 952.265,-75.1951 943.272,-81.5596 935.081,-87.1338"/>
<text text-anchor="middle" x="993.235" y="-57.8" font-family="Times,serif" font-size="14.00">value</text>
</g>
<!-- 20 -->
<g id="node21" class="node"><title>20</title>
<ellipse fill="none" stroke="black" cx="1128.23" cy="-105" rx="27" ry="18"/>
</g>
<!-- 20&#45;&#45;8 -->
<g id="edge20" class="edge"><title>20&#45;&#45;8</title>
<path fill="none" stroke="black" d="M1107.69,-116.891C1102.73,-119.182 1097.38,-121.389 1092.23,-123 999.425,-152.052 890.6,-169.414 808.842,-179.314"/>
<text text-anchor="middle" x="1031.23" y="-144.8" font-family="Times,serif" font-size="14.00">value</text>
</g>
<!-- 21 -->
<g id="node22" class="node"><title>21</title>
<ellipse fill="none" stroke="black" cx="904.235" cy="-192" rx="27" ry="18"/>
</g>
<!-- 21&#45;&#45;1 -->
<g id="edge21" class="edge"><title>21&#45;&#45;1</title>
<path fill="none" stroke="black" d="M883.644,-203.76C878.691,-206.056 873.351,-208.299 868.235,-210 791.305,-235.58 701.06,-253.256 633.782,-264.162"/>
<text text-anchor="middle" x="821.235" y="-231.8" font-family="Times,serif" font-size="14.00">value</text>
</g>
<!-- 22 -->
<g id="node23" class="node"><title>22</title>
<ellipse fill="none" stroke="black" cx="753.235" cy="-279" rx="27" ry="18"/>
<text text-anchor="middle" x="753.235" y="-275.3" font-family="Times,serif" font-size="14.00">?x</text>
</g>
<!-- 22&#45;&#45;0 -->
<g id="edge22" class="edge"><title>22&#45;&#45;0</title>
<path fill="none" stroke="black" d="M742.89,-295.988C733.305,-310.8 719.093,-332.765 709.288,-347.917"/>
<text text-anchor="middle" x="744.735" y="-318.8" font-family="Times,serif" font-size="14.00">name</text>
</g>
</g>
</svg>
